<svg width="512" height="512" viewBox="0 0 512 512" fill="none" xmlns="http://www.w3.org/2000/svg">
  <rect width="512" height="512" rx="128" fill="#6D5BD0"/>
  <rect x="64" y="64" width="384" height="384" rx="96" fill="#4C3BB3"/>
  <path d="M256 134C211.817 134 176 169.817 176 214V224C176 268.183 211.817 304 256 304C300.183 304 336 268.183 336 224V214C336 169.817 300.183 134 256 134Z" fill="#F7F7FB"/>
  <path d="M210 227H239V198H273V227H302V261H273V290H239V261H210V227Z" fill="#6D5BD0"/>
  <path d="M155 374C155 332.763 200.368 310 256 310C311.632 310 357 332.763 357 374V384H155V374Z" fill="#A79BFF"/>
</svg>